<?xml version="1.0" standalone="no"?>
<!DOCTYPE svg PUBLIC "-//W3C//DTD SVG 20010904//EN"
 "http://www.w3.org/TR/2001/REC-SVG-20010904/DTD/svg10.dtd">
<svg version="1.0" xmlns="http://www.w3.org/2000/svg"
 width="626.000000pt" height="417.000000pt" viewBox="0 0 626.000000 417.000000"
 preserveAspectRatio="xMidYMid meet">

<g transform="translate(0.000000,417.000000) scale(0.100000,-0.100000)"
fill="#000000" stroke="none">
<path d="M1322 4120 c0 -14 2 -19 5 -12 2 6 2 18 0 25 -3 6 -5 1 -5 -13z"/>
<path d="M5007 4120 c3 -11 7 -20 9 -20 2 0 4 9 4 20 0 11 -4 20 -9 20 -5 0
-7 -9 -4 -20z"/>
<path d="M700 4095 c0 -8 4 -15 10 -15 5 0 7 7 4 15 -4 8 -8 15 -10 15 -2 0
-4 -7 -4 -15z"/>
<path d="M5626 4095 c-3 -8 -1 -15 4 -15 6 0 10 7 10 15 0 8 -2 15 -4 15 -2 0
-6 -7 -10 -15z"/>
<path d="M702 4020 c0 -14 2 -19 5 -12 2 6 2 18 0 25 -3 6 -5 1 -5 -13z"/>
<path d="M5620 4033 c0 -5 5 -15 10 -23 8 -12 10 -11 10 8 0 12 -4 22 -10 22
-5 0 -10 -3 -10 -7z"/>
<path d="M1322 3950 c0 -14 2 -19 5 -12 2 6 2 18 0 25 -3 6 -5 1 -5 -13z"/>
<path d="M5012 3950 c0 -14 2 -19 5 -12 2 6 2 18 0 25 -3 6 -5 1 -5 -13z"/>
<path d="M1321 3874 c0 -11 3 -14 6 -6 3 7 2 16 -1 19 -3 4 -6 -2 -5 -13z"/>
<path d="M5011 3874 c0 -11 3 -14 6 -6 3 7 2 16 -1 19 -3 4 -6 -2 -5 -13z"/>
<path d="M702 3850 c0 -14 2 -19 5 -12 2 6 2 18 0 25 -3 6 -5 1 -5 -13z"/>
<path d="M5627 3856 c-4 -10 -5 -21 -2 -24 9 -9 17 6 13 25 -3 17 -4 17 -11
-1z"/>
<path d="M701 3774 c0 -11 3 -14 6 -6 3 7 2 16 -1 19 -3 4 -6 -2 -5 -13z"/>
<path d="M5626 3775 c4 -8 8 -15 10 -15 2 0 4 7 4 15 0 8 -4 15 -10 15 -5 0
-7 -7 -4 -15z"/>
<path d="M3120 3755 c0 -28 -47 -109 -82 -141 -80 -74 -162 -102 -339 -114
-140 -10 -196 -27 -234 -72 -27 -32 -49 -100 -42 -133 3 -21 -2 -24 -60 -33
-165 -28 -263 -132 -300 -321 l-16 -81 -36 0 c-50 0 -121 -38 -148 -79 l-23
-34 0 -1030 0 -1030 43 6 c333 44 483 55 942 68 530 16 1174 -7 1485 -51 36
-5 75 -10 88 -10 l22 0 0 1020 c0 1101 2 1047 -52 1096 -28 26 -80 44 -124 44
-31 0 -34 3 -39 38 -21 139 -58 216 -135 285 -52 47 -108 71 -191 82 -41 6
-45 9 -42 29 7 36 -16 104 -47 139 -38 43 -86 57 -235 67 -171 12 -254 41
-333 114 -35 32 -82 113 -82 141 0 8 -4 15 -10 15 -5 0 -10 -7 -10 -15z"/>
<path d="M1317 3710 c-3 -11 -1 -20 4 -20 5 0 9 9 9 20 0 11 -2 20 -4 20 -2 0
-6 -9 -9 -20z"/>
<path d="M5007 3710 c-3 -11 -1 -20 4 -20 5 0 9 9 9 20 0 11 -2 20 -4 20 -2 0
-6 -9 -9 -20z"/>
<path d="M1317 3630 c3 -11 7 -20 9 -20 2 0 4 9 4 20 0 11 -4 20 -9 20 -5 0
-7 -9 -4 -20z"/>
<path d="M5007 3630 c3 -11 7 -20 9 -20 2 0 4 9 4 20 0 11 -4 20 -9 20 -5 0
-7 -9 -4 -20z"/>
<path d="M700 3605 c0 -8 4 -15 10 -15 5 0 7 7 4 15 -4 8 -8 15 -10 15 -2 0
-4 -7 -4 -15z"/>
<path d="M5626 3605 c-3 -8 -1 -15 4 -15 6 0 10 7 10 15 0 8 -2 15 -4 15 -2 0
-6 -7 -10 -15z"/>
<path d="M700 3530 c0 -11 2 -20 4 -20 2 0 6 9 9 20 3 11 1 20 -4 20 -5 0 -9
-9 -9 -20z"/>
<path d="M5620 3543 c0 -5 5 -15 10 -23 8 -12 10 -11 10 8 0 12 -4 22 -10 22
-5 0 -10 -3 -10 -7z"/>
<path d="M1321 3464 c0 -11 3 -14 6 -6 3 7 2 16 -1 19 -3 4 -6 -2 -5 -13z"/>
<path d="M5011 3464 c0 -11 3 -14 6 -6 3 7 2 16 -1 19 -3 4 -6 -2 -5 -13z"/>
<path d="M1321 3384 c0 -11 3 -14 6 -6 3 7 2 16 -1 19 -3 4 -6 -2 -5 -13z"/>
<path d="M5011 3384 c0 -11 3 -14 6 -6 3 7 2 16 -1 19 -3 4 -6 -2 -5 -13z"/>
<path d="M701 3364 c0 -11 3 -14 6 -6 3 7 2 16 -1 19 -3 4 -6 -2 -5 -13z"/>
<path d="M5626 3365 c-3 -8 -1 -15 4 -15 6 0 10 7 10 15 0 8 -2 15 -4 15 -2 0
-6 -7 -10 -15z"/>
<path d="M701 3284 c0 -11 3 -14 6 -6 3 7 2 16 -1 19 -3 4 -6 -2 -5 -13z"/>
<path d="M5626 3285 c4 -8 8 -15 10 -15 2 0 4 7 4 15 0 8 -4 15 -10 15 -5 0
-7 -7 -4 -15z"/>
<path d="M1322 3220 c0 -14 2 -19 5 -12 2 6 2 18 0 25 -3 6 -5 1 -5 -13z"/>
<path d="M5012 3220 c0 -14 2 -19 5 -12 2 6 2 18 0 25 -3 6 -5 1 -5 -13z"/>
<path d="M1321 3144 c0 -11 3 -14 6 -6 3 7 2 16 -1 19 -3 4 -6 -2 -5 -13z"/>
<path d="M5011 3144 c0 -11 3 -14 6 -6 3 7 2 16 -1 19 -3 4 -6 -2 -5 -13z"/>
<path d="M700 3115 c0 -8 4 -15 10 -15 5 0 7 7 4 15 -4 8 -8 15 -10 15 -2 0
-4 -7 -4 -15z"/>
<path d="M5626 3115 c-3 -8 -1 -15 4 -15 6 0 10 7 10 15 0 8 -2 15 -4 15 -2 0
-6 -7 -10 -15z"/>
<path d="M700 3040 c0 -11 2 -20 4 -20 2 0 6 9 9 20 3 11 1 20 -4 20 -5 0 -9
-9 -9 -20z"/>
<path d="M5627 3040 c3 -11 7 -20 9 -20 2 0 4 9 4 20 0 11 -4 20 -9 20 -5 0
-7 -9 -4 -20z"/>
<path d="M1321 2974 c0 -11 3 -14 6 -6 3 7 2 16 -1 19 -3 4 -6 -2 -5 -13z"/>
<path d="M5011 2974 c0 -11 3 -14 6 -6 3 7 2 16 -1 19 -3 4 -6 -2 -5 -13z"/>
<path d="M1321 2894 c0 -11 3 -14 6 -6 3 7 2 16 -1 19 -3 4 -6 -2 -5 -13z"/>
<path d="M5011 2894 c0 -11 3 -14 6 -6 3 7 2 16 -1 19 -3 4 -6 -2 -5 -13z"/>
<path d="M701 2874 c0 -11 3 -14 6 -6 3 7 2 16 -1 19 -3 4 -6 -2 -5 -13z"/>
<path d="M5626 2875 c-3 -8 -1 -15 4 -15 6 0 10 7 10 15 0 8 -2 15 -4 15 -2 0
-6 -7 -10 -15z"/>
<path d="M5626 2812 c-2 -4 -1 -14 5 -22 7 -12 9 -10 9 8 0 23 -5 28 -14 14z"/>
<path d="M701 2794 c0 -11 3 -14 6 -6 3 7 2 16 -1 19 -3 4 -6 -2 -5 -13z"/>
<path d="M1322 2730 c0 -14 2 -19 5 -12 2 6 2 18 0 25 -3 6 -5 1 -5 -13z"/>
<path d="M5012 2730 c0 -14 2 -19 5 -12 2 6 2 18 0 25 -3 6 -5 1 -5 -13z"/>
<path d="M1321 2654 c0 -11 3 -14 6 -6 3 7 2 16 -1 19 -3 4 -6 -2 -5 -13z"/>
<path d="M5012 2650 c0 -14 2 -19 5 -12 2 6 2 18 0 25 -3 6 -5 1 -5 -13z"/>
<path d="M700 2630 c0 -11 4 -20 9 -20 5 0 7 9 4 20 -3 11 -7 20 -9 20 -2 0
-4 -9 -4 -20z"/>
<path d="M5627 2636 c-4 -10 -5 -21 -2 -24 9 -9 17 6 13 25 -3 17 -4 17 -11
-1z"/>
<path d="M700 2550 c0 -11 2 -20 4 -20 2 0 6 9 9 20 3 11 1 20 -4 20 -5 0 -9
-9 -9 -20z"/>
<path d="M1308 2548 c-18 -28 -31 -78 -21 -78 5 0 13 10 18 23 15 33 38 27 52
-13 l12 -35 0 30 c1 26 -31 95 -43 95 -2 0 -10 -10 -18 -22z"/>
<path d="M4991 2544 c-13 -16 -21 -41 -20 -63 l0 -36 12 35 c7 19 19 35 27 35
8 0 20 -16 27 -35 l12 -35 0 33 c1 29 -22 92 -34 92 -2 0 -13 -12 -24 -26z"/>
<path d="M5626 2555 c4 -8 8 -15 10 -15 2 0 4 7 4 15 0 8 -4 15 -10 15 -5 0
-7 -7 -4 -15z"/>
<path d="M701 2384 c0 -11 3 -14 6 -6 3 7 2 16 -1 19 -3 4 -6 -2 -5 -13z"/>
<path d="M1054 2374 c8 -35 65 -91 101 -100 62 -15 140 25 165 86 7 17 11 33
8 35 -2 2 -22 0 -43 -6 -42 -12 -186 -7 -219 6 -17 7 -18 5 -12 -21z"/>
<path d="M5014 2372 c8 -33 66 -89 101 -98 62 -15 140 25 165 86 15 37 11 43
-21 32 -33 -12 -166 -14 -212 -3 -38 9 -39 9 -33 -17z"/>
<path d="M5626 2385 c-3 -8 -1 -15 4 -15 6 0 10 7 10 15 0 8 -2 15 -4 15 -2 0
-6 -7 -10 -15z"/>
<path d="M702 2310 c0 -14 2 -19 5 -12 2 6 2 18 0 25 -3 6 -5 1 -5 -13z"/>
<path d="M5620 2323 c0 -5 5 -15 10 -23 8 -12 10 -11 10 8 0 12 -4 22 -10 22
-5 0 -10 -3 -10 -7z"/>
<path d="M701 2144 c0 -11 3 -14 6 -6 3 7 2 16 -1 19 -3 4 -6 -2 -5 -13z"/>
<path d="M5625 2140 c-3 -5 -1 -10 4 -10 6 0 11 5 11 10 0 6 -2 10 -4 10 -3 0
-8 -4 -11 -10z"/>
<path d="M701 2064 c0 -11 3 -14 6 -6 3 7 2 16 -1 19 -3 4 -6 -2 -5 -13z"/>
<path d="M5626 2065 c4 -8 8 -15 10 -15 2 0 4 7 4 15 0 8 -4 15 -10 15 -5 0
-7 -7 -4 -15z"/>
<path d="M681 1938 c-16 -34 -19 -52 -12 -70 l10 -23 0 26 c1 32 24 64 39 55
7 -4 16 -21 21 -39 l9 -32 1 37 c1 26 -6 45 -23 65 l-25 28 -20 -47z"/>
<path d="M5600 1934 c-18 -36 -20 -50 -12 -67 10 -21 11 -20 11 9 1 33 23 60
40 49 6 -3 15 -20 20 -38 l9 -32 1 33 c1 34 -23 92 -38 92 -5 0 -19 -21 -31
-46z"/>
<path d="M430 1797 c0 -21 38 -75 64 -92 37 -25 97 -30 132 -12 40 21 71 56
79 90 7 27 6 28 -21 20 -36 -10 -178 -10 -221 -1 -23 5 -33 4 -33 -5z"/>
<path d="M5630 1795 c0 -31 39 -82 77 -100 43 -21 104 -15 142 12 26 19 68 90
58 99 -2 3 -26 0 -52 -7 -46 -12 -172 -8 -207 6 -13 5 -18 2 -18 -10z"/>
<path d="M1722 644 c-20 -14 -22 -23 -22 -108 l0 -94 -47 -11 c-80 -20 -95
-35 -91 -88 3 -44 5 -47 43 -60 22 -8 94 -26 160 -40 66 -13 124 -28 130 -32
25 -20 285 -52 575 -73 241 -16 1207 -16 1465 0 304 20 600 61 620 86 6 7 43
20 83 30 41 10 89 24 108 32 34 14 35 16 32 62 -3 52 -18 64 -108 87 l-45 11
-5 91 c-3 50 -7 93 -10 96 -20 17 -49 22 -98 17 -31 -3 -568 -5 -1192 -3 -624
1 -1166 1 -1205 1 -38 -1 -110 -2 -160 -1 -64 0 -81 -2 -60 -8 21 -6 13 -7
-30 -4 -72 5 -92 9 -101 18 -10 10 -17 9 -42 -9z m870 -151 l29 -6 -2 -95 -3
-95 -145 7 c-80 3 -176 9 -213 13 l-68 6 0 81 c0 52 -5 87 -12 95 -11 11 21
12 185 7 110 -4 212 -10 229 -13z m-977 -129 c63 0 205 -32 205 -46 0 -11 -78
-10 -125 2 -75 20 -125 42 -119 52 4 6 9 6 13 1 3 -5 15 -9 26 -9z m3149 5
c-18 -30 -175 -66 -215 -50 -24 10 -24 10 4 10 35 1 152 28 215 50 2 1 0 -4
-4 -10z m-2376 -129 c85 -6 159 -10 167 -10 7 0 15 -10 18 -21 l6 -22 -172 7
c-254 11 -288 16 -298 44 -9 23 -9 23 59 17 37 -3 136 -10 220 -15z"/>
<path d="M886 583 c-17 -3 -30 -12 -33 -24 -7 -24 -23 -25 -23 -1 0 14 -4 12
-20 -8 -23 -31 -19 -35 48 -49 82 -17 162 -14 181 7 25 27 58 42 91 42 30 0
40 -5 82 -44 18 -16 32 -18 112 -13 50 3 100 8 111 12 16 5 17 4 5 -3 -59 -39
-357 -54 -515 -27 -112 20 -158 41 -151 68 4 15 2 17 -7 8 -8 -8 -8 -34 0 -98
10 -82 9 -90 -9 -116 -20 -27 -20 -29 -2 -42 45 -35 181 -55 376 -55 218 0
347 20 384 61 18 20 17 21 -8 42 l-27 22 12 88 c9 71 8 89 -3 100 -10 10 -11
9 -6 -1 4 -7 2 -20 -5 -28 -11 -14 -15 -11 -28 18 -13 26 -24 34 -56 40 -56
10 -115 10 -115 0 0 -5 -44 -12 -99 -15 -109 -8 -230 1 -209 14 14 9 -32 10
-86 2z m309 -152 c-16 -4 -40 -7 -52 -6 -12 1 -20 -2 -17 -6 3 -5 0 -9 -5 -9
-6 0 -11 4 -11 8 0 5 -21 9 -46 9 -25 1 -48 4 -51 7 -4 3 43 5 103 5 66 -1 97
-4 79 -8z m271 -106 c-11 -8 -25 -15 -30 -15 -6 1 0 7 14 15 32 19 40 18 16 0z"/>
<path d="M4950 580 c-19 -5 -36 -13 -38 -18 -1 -5 -9 -17 -16 -27 -15 -21 -40
-11 -31 14 5 12 3 13 -5 5 -9 -9 -9 -34 0 -105 12 -92 12 -92 -11 -110 -60
-45 41 -84 254 -98 204 -14 431 10 497 51 26 16 25 26 -2 50 -20 17 -21 23
-12 99 10 85 8 95 -11 79 -10 -8 -16 -3 -23 20 -12 33 -32 41 -33 13 0 -15 -2
-14 -9 3 -6 14 -21 23 -47 27 -56 10 -101 9 -85 -2 22 -13 -119 -23 -219 -15
-49 3 -86 10 -83 15 6 11 -78 10 -126 -1z m358 -61 l26 -32 80 7 c45 3 95 8
111 11 23 5 26 4 14 -4 -31 -20 -193 -41 -314 -41 -122 0 -283 21 -314 41 -13
8 -11 9 9 4 14 -3 66 -9 116 -12 l90 -6 34 32 c28 25 43 31 78 31 36 0 48 -5
70 -31z m-141 -85 c-3 -3 -12 -4 -19 -1 -8 3 -5 6 6 6 11 1 17 -2 13 -5z m171
1 c-10 -11 -147 -15 -153 -5 -4 6 25 10 76 10 45 0 80 -2 77 -5z m-423 -123
c-3 -3 -11 0 -18 7 -9 10 -8 11 6 5 10 -3 15 -9 12 -12z"/>
</g>
</svg>
